<?xml version="1.0" encoding="utf-8"?>
<!-- Generator: Adobe Illustrator 15.0.0, SVG Export Plug-In . SVG Version: 6.00 Build 0)  -->
<!DOCTYPE svg PUBLIC "-//W3C//DTD SVG 1.1//EN" "http://www.w3.org/Graphics/SVG/1.1/DTD/svg11.dtd">
<svg version="1.1" id="Calque_1" xmlns="http://www.w3.org/2000/svg" xmlns:xlink="http://www.w3.org/1999/xlink" x="0px" y="0px"
	 width="105.01px" height="1944.971px" viewBox="0 0 105.01 1944.971" enable-background="new 0 0 105.01 1944.971"
	 xml:space="preserve">
<path fill="#FFFFFF" d="M52.505,7.33c-12.427,0-22.5,10.073-22.5,22.5c0,12.427,10.073,22.5,22.5,22.5
	c12.428,0,22.5-10.073,22.5-22.5C75.005,17.403,64.933,7.33,52.505,7.33z M52.453,13.18c2.733,0,4.948,2.215,4.948,4.948
	s-2.215,4.948-4.948,4.948c-2.732,0-4.947-2.215-4.947-4.948C47.505,15.396,49.72,13.18,52.453,13.18z M57.187,46h-10V27h10V46z"/>
<g>
	<rect x="30.186" y="161" fill="#FFFFFF" width="10" height="32"/>
	<polygon fill="#FFFFFF" points="60.187,192.568 42.186,195.61 42.186,158.39 60.187,161.335 	"/>
	<polygon fill="#FFFFFF" points="75.187,195.61 62.187,192.568 62.187,161.335 75.187,158.39 	"/>
</g>
<g>
	<g>
		<polyline fill="#FFFFFF" points="34.186,314 34.186,298 37.186,298 37.186,296 30.187,296 33.498,305.809 30.005,315 34.186,315 
					"/>
	</g>
	<g>
		<polyline fill="#FFFFFF" points="70.187,314 70.187,298 67.187,298 67.187,296 74.824,296 71.513,305.809 75.005,315 70.187,315 
					"/>
	</g>
	<rect x="36.186" y="300" fill="#FFFFFF" width="32" height="18"/>
</g>
<g>
	<rect x="44.186" y="418" fill="#FFFFFF" width="18" height="30"/>
	<rect x="64.187" y="421" fill="#FFFFFF" width="7" height="24"/>
	<rect x="73.187" y="426" fill="#FFFFFF" width="2" height="16"/>
	<rect x="35.186" y="421" fill="#FFFFFF" width="7" height="24"/>
	<rect x="30.186" y="426" fill="#FFFFFF" width="3" height="16"/>
</g>
<g>
	<path fill="#FFFFFF" d="M70.892,552h-6.705v3.818c0,0.553,0.258,1.182-0.295,1.182h-2c-0.553,0-1.705-0.629-1.705-1.182V552h-16
		v3.818c0,0.553,0.258,1.182-0.295,1.182h-2c-0.552,0-1.705-0.629-1.705-1.182V552h-5.295c-1.104,0-2.705,0.714-2.705,1.818v36
		c0,1.104,1.601,2.182,2.705,2.182h36c1.104,0,1.295-1.077,1.295-2.182v-36C72.187,552.714,71.996,552,70.892,552z M70.187,589
		c0,0.553-0.447,1-1,1h-34c-0.552,0-1-0.447-1-1v-29c0-0.553,0.448-1,1-1h34c0.553,0,1,0.447,1,1V589z"/>
	<path fill="#FFFFFF" d="M40.186,552h4v-3c0,0-0.346-2.025-2-2.025s-2,1.943-2,1.943V552z"/>
	<path fill="#FFFFFF" d="M60.187,552h4v-3c0,0-0.347-2.025-2-2.025c-1.654,0-2,1.943-2,1.943V552z"/>
	<g>
		<path fill="#FFFFFF" d="M41.048,579.561c0.648,0.36,2.136,0.961,3.624,0.961c1.896,0,2.856-0.912,2.856-2.064
			c0-1.561-1.536-2.256-3.144-2.256h-1.488v-2.616h1.44c1.224,0,2.76-0.479,2.76-1.8c0-0.938-0.744-1.633-2.304-1.633
			c-1.272,0-2.616,0.553-3.24,0.937l-0.744-2.641c0.936-0.601,2.784-1.177,4.825-1.177c3.312,0,5.16,1.753,5.16,3.89
			c0,1.655-0.936,2.976-2.856,3.624v0.048c1.872,0.336,3.384,1.752,3.384,3.815c0,2.736-2.424,4.753-6.385,4.753
			c-2.016,0-3.72-0.527-4.632-1.08L41.048,579.561z"/>
		<path fill="#FFFFFF" d="M65.241,575.264c0,4.802-1.944,8.138-5.904,8.138c-4.033,0-5.809-3.624-5.833-8.04
			c0-4.537,1.896-8.089,5.929-8.089C63.584,567.271,65.241,570.991,65.241,575.264z M57.151,575.36c0,3.575,0.865,5.279,2.258,5.279
			c1.416,0,2.184-1.775,2.184-5.327c0-3.457-0.744-5.281-2.209-5.281C58.063,570.031,57.151,571.712,57.151,575.36z"/>
	</g>
</g>
<g>
	<path fill="#FFFFFF" d="M73.187,699c0,0.553-0.447,1-1,1h-39c-0.552,0-1-0.447-1-1v-6c0-0.553,0.448-1,1-1h39c0.553,0,1,0.447,1,1
		V699z"/>
	<path fill="#FFFFFF" d="M73.187,710c0,0.553-0.447,1-1,1h-39c-0.552,0-1-0.447-1-1v-6c0-0.553,0.448-1,1-1h39c0.553,0,1,0.447,1,1
		V710z"/>
	<path fill="#FFFFFF" d="M73.187,721c0,0.553-0.447,1-1,1h-39c-0.552,0-1-0.447-1-1v-6c0-0.553,0.448-1,1-1h39c0.553,0,1,0.447,1,1
		V721z"/>
</g>
<g>
	<path fill="#FFFFFF" d="M67.724,835.256c-4.315,0-7.472-3.41-7.472-7.727c0-0.92-0.168-1.529,0.125-2.529H33.362
		c-1.053,0-3.176,0.674-3.176,1.727v34.288c0,1.053,2.123,1.985,3.176,1.985h34.29c1.051,0,0.535-0.934,0.535-1.985v-25.853
		C68.187,835.217,68.115,835.256,67.724,835.256z"/>
	<path fill="#FFFFFF" d="M68.944,821.723c-3.006,0-5.441,2.438-5.441,5.441c0,3.006,2.436,5.443,5.441,5.443
		c3.005,0,5.443-2.438,5.443-5.443C74.388,824.16,71.95,821.723,68.944,821.723z M70.144,830l-1.24-2.02L67.662,830h-2.169
		l2.168-3.133L65.688,824h2.141l1.111,1.934L70.024,824h2.117l-1.957,2.901L72.326,830H70.144z"/>
</g>
<path fill="#FFFFFF" d="M64.187,973h-24 M40.186,973h-5.295c-1.104,0-2.705,0.714-2.705,1.818v36c0,1.104,1.601,2.182,2.705,2.182
	h36c1.104,0,1.295-1.077,1.295-2.182v-36c0-1.104-0.19-1.818-1.295-1.818h-6.705 M70.187,1010c0,0.553-0.447,1-1,1h-34
	c-0.552,0-1-0.447-1-1v-29c0-0.553,0.448-1,1-1h34c0.553,0,1,0.447,1,1V1010z"/>
<path fill="#FFFFFF" d="M68.187,1008c0,0.553-0.447,1-1,1h-30c-0.552,0-1-0.447-1-1v-25c0-0.553,0.448-1,1-1h30c0.553,0,1,0.447,1,1
	V1008z"/>
<g>
	<path fill="#FFFFFF" d="M41.186,1113v21h22v-21H41.186z M45.203,1129l7.13-11.25l7.373,11.25H45.203z"/>
	<path fill="#FFFFFF" d="M63.187,1158v-22h-22v22H63.187z M59.706,1141l-7.373,11.25l-7.13-11.25H59.706z"/>
</g>
<path fill="#FFFFFF" d="M51.186,1272v-2.734c0-0.424,0.514-0.266,0.937-0.266h0.765c0.423,0,1.298-0.158,1.298,0.266V1272H51.186z"
	/>
<path fill="#FFFFFF" d="M52.505,1272.786"/>
<g>
	<path fill="#FFFFFF" d="M51.357,1271L51.357,1271H36.051c-0.423,0-0.865-0.168-0.865,0.255V1274h35v-2.745
		c0-0.423-0.805-0.255-1.228-0.255H53.653l0,0H51.357z"/>
	<path fill="#FFFFFF" d="M35.186,1276v17.449c0,0.423,0.442,0.551,0.865,0.551h32.908c0.423,0,1.228-0.128,1.228-0.551V1276H35.186z
		"/>
</g>
<g>
	<line fill="none" stroke="#FFFFFF" stroke-miterlimit="10" x1="52.686" y1="1294" x2="52.686" y2="1314"/>
	<line fill="none" stroke="#FFFFFF" stroke-miterlimit="10" x1="52.913" y1="1294.215" x2="61.74" y2="1313.5"/>
	<line fill="none" stroke="#FFFFFF" stroke-miterlimit="10" x1="52.098" y1="1293.857" x2="43.27" y2="1313.145"/>
</g>
<g>
	<path fill="#FFFFFF" d="M74.187,1480.043c0,0.528-0.43,0.957-0.959,0.957H32.144c-0.529,0-0.958-0.429-0.958-0.957v-36.086
		c0-0.528,0.429-0.957,0.958-0.957h41.083c0.529,0,0.959,0.429,0.959,0.957V1480.043z"/>
	<path fill="#FFFFFF" d="M46.186,1440.043c0,0.528-0.429,0.957-0.957,0.957H32.143c-0.528,0-0.957-0.429-0.957-0.957v-3.086
		c0-0.528,0.429-0.957,0.957-0.957h13.086c0.528,0,0.957,0.429,0.957,0.957V1440.043z"/>
	<path fill="#FFFFFF" d="M63.187,1440.043c0,0.528-0.43,0.957-0.959,0.957H49.144c-0.529,0-0.958-0.429-0.958-0.957v-3.086
		c0-0.528,0.429-0.957,0.958-0.957h13.083c0.529,0,0.959,0.429,0.959,0.957V1440.043z"/>
</g>
<g>
	<path fill="none" stroke="#FFFFFF" stroke-miterlimit="10" d="M74.687,1605.5c0,6.627-5.373,12-12,12h-20c-6.627,0-12-5.373-12-12
		v-1c0-6.627,5.373-12,12-12h20c6.627,0,12,5.373,12,12V1605.5z"/>
	<path fill="#FFFFFF" d="M53.187,1618H42.505c-6.628,0-12.319-6.873-12.319-13.5v-1c0-6.627,5.691-11.5,12.319-11.5h10.682V1618z"/>
</g>
<path fill="#FFFFFF" d="M74.278,1735.948c0,10.174-9.748,18.422-21.772,18.422c-1.066,0-7.816,8.279-8.842,8.154
	c-1.085-0.134,3.558-8.678,2.53-8.939c-8.947-2.29-15.461-9.319-15.461-17.637c0-10.175,9.748-18.423,21.772-18.423
	C64.528,1717.525,74.278,1725.773,74.278,1735.948z"/>
<g>
	<text transform="matrix(1 0 0 1 24.1021 1899.4014)" fill="#FFFFFF" font-family="'Aleo-Regular'" font-size="72">a</text>
	<path fill="#FFFFFF" d="M70.106,1858.598c-5.967,0-10.803,4.836-10.803,10.802c0,5.965,4.836,10.801,10.803,10.801
		c5.965,0,10.801-4.836,10.801-10.801C80.907,1863.434,76.071,1858.598,70.106,1858.598z M72.946,1874.2h-5.379v-0.413v-0.147
		c0-0.135,0.064-0.217,0.195-0.245l1.961-0.146v-6.843c0-0.206,0.008-0.413,0.021-0.624l-1.793,1.534
		c-0.09,0.07-0.174,0.105-0.252,0.105c-0.154,0-0.266-0.052-0.336-0.154l-0.393-0.539l2.982-2.585h1.016v9.105
		c1.107,0.084,1.701,0.133,1.779,0.146c0.131,0.028,0.197,0.11,0.197,0.245V1874.2z"/>
</g>
</svg>
